<svg xmlns="http://www.w3.org/2000/svg" viewBox="0 0 420 320" width="420" height="320" role="img">
<defs>
    <linearGradient id="bg" x1="0" y1="0" x2="0.3" y2="1">
      <stop offset="0%" stop-color="#fff4d6"/>
      <stop offset="100%" stop-color="#f2bb4e"/>
    </linearGradient>
    <radialGradient id="vig" cx="50%" cy="38%" r="72%">
      <stop offset="52%" stop-color="#000" stop-opacity="0"/>
      <stop offset="100%" stop-color="#2a1a0c" stop-opacity="0.34"/>
    </radialGradient>
    <linearGradient id="fade" x1="0" y1="0" x2="0" y2="1">
      <stop offset="0%" stop-color="#ffffff" stop-opacity="0.34"/>
      <stop offset="100%" stop-color="#ffffff" stop-opacity="0"/>
    </linearGradient></defs>

  <rect width="420" height="320" fill="url(#bg)"/>
  <circle cx="236.5" cy="119.7" r="23.7" fill="#ffffff" opacity="0.24"/><circle cx="407.6" cy="111.0" r="21.5" fill="#ffffff" opacity="0.19"/><circle cx="145.0" cy="97.2" r="25.8" fill="#ffffff" opacity="0.11"/><circle cx="144.1" cy="67.7" r="12.0" fill="#ffffff" opacity="0.23"/><circle cx="25.8" cy="55.6" r="15.4" fill="#ffffff" opacity="0.09"/><circle cx="99.0" cy="56.5" r="12.9" fill="#ffffff" opacity="0.16"/><circle cx="174.2" cy="46.2" r="16.9" fill="#ffffff" opacity="0.18"/><circle cx="319.7" cy="0.2" r="20.1" fill="#ffffff" opacity="0.17"/><circle cx="261.2" cy="4.8" r="16.4" fill="#ffffff" opacity="0.12"/><circle cx="296.7" cy="4.8" r="12.8" fill="#ffffff" opacity="0.23"/>
  <rect width="420" height="176" fill="url(#fade)"/>
  <g opacity="0.62"><path fill="#0a6fa5" d="M -18.7 262.0 C -18.7 204.8 20.9 198.2 47.3 198.2 C 73.7 198.2 113.4 204.8 113.4 262.0 Z"/><ellipse fill="#6f4526" cx="47.3" cy="180.0" rx="21.5" ry="24.0"/><path fill="#0a6fa5" opacity="0.55" d="M 25.4 171.0 a 21.9 20.4 0 0 1 43.8 0 Z"/></g><g opacity="0.62"><path fill="#1a8046" d="M 93.4 262.0 C 93.4 204.4 133.3 197.7 160.0 197.7 C 186.6 197.7 226.6 204.4 226.6 262.0 Z"/><ellipse fill="#f0cba4" cx="160.0" cy="179.4" rx="21.6" ry="24.2"/><path fill="#1a8046" opacity="0.55" d="M 137.9 170.3 a 22.1 20.6 0 0 1 44.2 0 Z"/></g><g opacity="0.62"><path fill="#1a8046" d="M 180.5 262.0 C 180.5 199.2 224.5 191.9 253.8 191.9 C 283.1 191.9 327.1 199.2 327.1 262.0 Z"/><ellipse fill="#b57a4d" cx="253.8" cy="171.7" rx="23.8" ry="26.7"/><path fill="#1a8046" opacity="0.55" d="M 229.5 161.7 a 24.3 22.6 0 0 1 48.6 0 Z"/></g><g opacity="0.62"><path fill="#c2233f" d="M 298.4 262.0 C 298.4 199.2 342.3 191.9 371.6 191.9 C 400.9 191.9 444.9 199.2 444.9 262.0 Z"/><ellipse fill="#8c5a34" cx="371.6" cy="171.8" rx="23.8" ry="26.7"/><path fill="#c2233f" opacity="0.55" d="M 347.3 161.8 a 24.3 22.6 0 0 1 48.6 0 Z"/></g>
  <g opacity="1.00"><path fill="#1a8046" d="M -31.9 358.0 C -31.9 275.0 27.7 265.1 67.5 265.1 C 107.2 265.1 166.8 275.0 166.8 358.0 Z"/><ellipse fill="#b57a4d" cx="67.5" cy="237.7" rx="32.3" ry="36.2"/><path fill="#1a8046" opacity="0.55" d="M 34.5 224.2 a 32.9 30.7 0 0 1 65.9 0 Z"/></g><g opacity="1.00"><path fill="#7f28b8" d="M 106.0 358.0 C 106.0 270.9 168.8 260.4 210.6 260.4 C 252.5 260.4 315.3 270.9 315.3 358.0 Z"/><ellipse fill="#f0cba4" cx="210.6" cy="231.7" rx="34.0" ry="38.1"/><path fill="#7f28b8" opacity="0.55" d="M 175.9 217.4 a 34.7 32.3 0 0 1 69.4 0 Z"/></g><g opacity="1.00"><path fill="#0a6fa5" d="M 251.3 358.0 C 251.3 276.3 310.0 266.5 349.0 266.5 C 388.1 266.5 446.8 276.3 446.8 358.0 Z"/><ellipse fill="#b57a4d" cx="349.0" cy="239.6" rx="31.8" ry="35.6"/><path fill="#0a6fa5" opacity="0.55" d="M 316.6 226.3 a 32.4 30.2 0 0 1 64.8 0 Z"/></g>
  <rect width="420" height="320" fill="url(#vig)"/>
</svg>
