<svg xmlns="http://www.w3.org/2000/svg" viewBox="0 0 420 320" width="420" height="320" role="img">
<defs>
    <linearGradient id="bg" x1="0" y1="0" x2="0.3" y2="1">
      <stop offset="0%" stop-color="#e8f5fd"/>
      <stop offset="100%" stop-color="#5f9bc4"/>
    </linearGradient>
    <radialGradient id="vig" cx="50%" cy="38%" r="72%">
      <stop offset="52%" stop-color="#000" stop-opacity="0"/>
      <stop offset="100%" stop-color="#2a1a0c" stop-opacity="0.34"/>
    </radialGradient>
    <linearGradient id="fade" x1="0" y1="0" x2="0" y2="1">
      <stop offset="0%" stop-color="#ffffff" stop-opacity="0.34"/>
      <stop offset="100%" stop-color="#ffffff" stop-opacity="0"/>
    </linearGradient></defs>

  <rect width="420" height="320" fill="url(#bg)"/>
  <circle cx="179.5" cy="62.5" r="23.0" fill="#ffffff" opacity="0.09"/><circle cx="9.3" cy="113.0" r="19.2" fill="#ffffff" opacity="0.14"/><circle cx="253.2" cy="78.3" r="21.2" fill="#ffffff" opacity="0.23"/><circle cx="342.0" cy="89.0" r="18.6" fill="#ffffff" opacity="0.08"/><circle cx="63.4" cy="127.2" r="25.9" fill="#ffffff" opacity="0.11"/><circle cx="86.6" cy="119.2" r="14.0" fill="#ffffff" opacity="0.25"/><circle cx="255.9" cy="15.9" r="10.3" fill="#ffffff" opacity="0.11"/><circle cx="245.9" cy="81.1" r="10.4" fill="#ffffff" opacity="0.23"/><circle cx="320.7" cy="48.1" r="17.9" fill="#ffffff" opacity="0.09"/><circle cx="144.3" cy="91.5" r="19.1" fill="#ffffff" opacity="0.14"/>
  <rect width="420" height="176" fill="url(#fade)"/>
  <g opacity="0.62"><path fill="#15514c" d="M -26.6 262.0 C -26.6 201.1 15.9 194.0 44.2 194.0 C 72.6 194.0 115.1 201.1 115.1 262.0 Z"/><ellipse fill="#6f4526" cx="44.2" cy="174.6" rx="23.0" ry="25.8"/><path fill="#15514c" opacity="0.55" d="M 20.8 164.9 a 23.5 21.9 0 0 1 47.0 0 Z"/></g><g opacity="0.62"><path fill="#27456d" d="M 94.7 262.0 C 94.7 200.9 137.3 193.8 165.8 193.8 C 194.2 193.8 236.9 200.9 236.9 262.0 Z"/><ellipse fill="#b57a4d" cx="165.8" cy="174.2" rx="23.1" ry="25.9"/><path fill="#27456d" opacity="0.55" d="M 142.2 164.5 a 23.6 22.0 0 0 1 47.2 0 Z"/></g><g opacity="0.62"><path fill="#15514c" d="M 184.8 262.0 C 184.8 199.1 228.8 191.8 258.2 191.8 C 287.6 191.8 331.6 199.1 331.6 262.0 Z"/><ellipse fill="#e8b98d" cx="258.2" cy="171.6" rx="23.9" ry="26.7"/><path fill="#15514c" opacity="0.55" d="M 233.9 161.6 a 24.3 22.7 0 0 1 48.7 0 Z"/></g><g opacity="0.62"><path fill="#15514c" d="M 296.4 262.0 C 296.4 198.2 341.2 190.7 371.0 190.7 C 400.9 190.7 445.6 198.2 445.6 262.0 Z"/><ellipse fill="#d29b6b" cx="371.0" cy="170.2" rx="24.2" ry="27.2"/><path fill="#15514c" opacity="0.55" d="M 346.3 160.0 a 24.7 23.0 0 0 1 49.5 0 Z"/></g>
  <g opacity="1.00"><path fill="#42474f" d="M -38.4 358.0 C -38.4 276.8 19.8 267.1 58.6 267.1 C 97.4 267.1 155.6 276.8 155.6 358.0 Z"/><ellipse fill="#8c5a34" cx="58.6" cy="240.4" rx="31.5" ry="35.3"/><path fill="#42474f" opacity="0.55" d="M 26.4 227.2 a 32.2 30.0 0 0 1 64.3 0 Z"/></g><g opacity="1.00"><path fill="#27456d" d="M 118.9 358.0 C 118.9 279.8 174.8 270.5 212.1 270.5 C 249.4 270.5 305.3 279.8 305.3 358.0 Z"/><ellipse fill="#8c5a34" cx="212.1" cy="244.8" rx="30.3" ry="33.9"/><path fill="#27456d" opacity="0.55" d="M 181.2 232.1 a 30.9 28.8 0 0 1 61.8 0 Z"/></g><g opacity="1.00"><path fill="#27456d" d="M 261.3 358.0 C 261.3 278.0 318.6 268.4 356.9 268.4 C 395.1 268.4 452.4 278.0 452.4 358.0 Z"/><ellipse fill="#6f4526" cx="356.9" cy="242.1" rx="31.0" ry="34.8"/><path fill="#27456d" opacity="0.55" d="M 325.2 229.1 a 31.7 29.5 0 0 1 63.3 0 Z"/></g>
  <rect width="420" height="320" fill="url(#vig)"/>
</svg>
