<svg xmlns="http://www.w3.org/2000/svg" viewBox="0 0 480 270" width="480" height="270" role="img">
<defs>
    <linearGradient id="bg" x1="0" y1="0" x2="1" y2="1">
      <stop offset="0%" stop-color="#0a2044"/>
      <stop offset="100%" stop-color="#1d5280"/>
    </linearGradient>
    <radialGradient id="halo" cx="50%" cy="50%" r="50%">
      <stop offset="0%" stop-color="#ffdb92" stop-opacity="0.9"/>
      <stop offset="38%" stop-color="#eda849" stop-opacity="0.42"/>
      <stop offset="100%" stop-color="#8a4a10" stop-opacity="0"/>
    </radialGradient>
    <linearGradient id="goldbar" x1="0" y1="0" x2="0" y2="1">
      <stop offset="0%" stop-color="#fff0cb"/>
      <stop offset="45%" stop-color="#ffd782"/>
      <stop offset="100%" stop-color="#e5a53f"/>
    </linearGradient></defs>

  <rect width="480" height="270" fill="url(#bg)"/>
  <circle cx="240" cy="92" r="124" fill="url(#halo)" opacity="0.55"/>
  <circle cx="296.2" cy="144.2" r="9.5" fill="#cfe6ff" opacity="0.27"/><circle cx="449.8" cy="84.3" r="12.8" fill="#cfe6ff" opacity="0.27"/><circle cx="411.9" cy="6.0" r="6.0" fill="#cfe6ff" opacity="0.35"/><circle cx="358.5" cy="42.3" r="12.9" fill="#cfe6ff" opacity="0.12"/><circle cx="172.9" cy="71.4" r="6.7" fill="#cfe6ff" opacity="0.11"/><circle cx="243.6" cy="104.8" r="7.8" fill="#cfe6ff" opacity="0.25"/><circle cx="471.3" cy="8.9" r="7.3" fill="#cfe6ff" opacity="0.10"/><circle cx="325.1" cy="66.8" r="9.3" fill="#cfe6ff" opacity="0.14"/><circle cx="373.0" cy="122.9" r="9.4" fill="#cfe6ff" opacity="0.30"/><circle cx="111.0" cy="55.8" r="15.5" fill="#cfe6ff" opacity="0.13"/><circle cx="69.1" cy="5.2" r="12.1" fill="#cfe6ff" opacity="0.30"/><circle cx="24.8" cy="77.5" r="8.8" fill="#cfe6ff" opacity="0.16"/><circle cx="112.7" cy="62.3" r="5.7" fill="#cfe6ff" opacity="0.33"/><circle cx="95.6" cy="86.7" r="11.7" fill="#cfe6ff" opacity="0.25"/>
  <g opacity="0.97"><path fill="#07162c" d="M 76.0 308.4 C 76.0 249.7 116.8 242.9 144.0 242.9 C 171.2 242.9 212.0 249.7 212.0 308.4 Z"/><ellipse fill="#c78e5f" cx="144.0" cy="224.2" rx="22.1" ry="24.8"/><path fill="#07162c" opacity="0.55" d="M 121.5 214.9 a 22.5 21.0 0 0 1 45.1 0 Z"/></g>
  <g opacity="0.97"><path fill="#0c2142" d="M 268.0 308.4 C 268.0 249.7 308.8 242.9 336.0 242.9 C 363.2 242.9 404.0 249.7 404.0 308.4 Z"/><ellipse fill="#8d5c34" cx="336.0" cy="224.2" rx="22.1" ry="24.8"/><path fill="#0c2142" opacity="0.55" d="M 313.5 214.9 a 22.5 21.0 0 0 1 45.1 0 Z"/></g>
  <g fill="#07162c" opacity="0.95"><path d="M 208.2 263.3 Q 216.2 188.6 239.3 147.2 L 257.5 147.2 Q 241.5 188.6 233.5 263.3 Z"/><ellipse cx="248.4" cy="141.4" rx="10.3" ry="12.6" transform="rotate(14 248.4 147.2)"/></g>
  <g fill="#0c2142" opacity="0.95"><path d="M 260.9 263.3 Q 252.9 180.7 236.9 139.3 L 255.1 139.3 Q 278.2 180.7 286.2 263.3 Z"/><ellipse cx="246.0" cy="133.6" rx="10.3" ry="12.6" transform="rotate(-14 246.0 139.3)"/></g>
</svg>
