<svg xmlns="http://www.w3.org/2000/svg" viewBox="0 0 480 270" width="480" height="270" role="img">
<defs>
    <linearGradient id="sky" x1="0" y1="0" x2="0" y2="1">
      <stop offset="0%" stop-color="#2f1706"/>
      <stop offset="48%" stop-color="#7a4111"/>
      <stop offset="100%" stop-color="#c8802a"/>
    </linearGradient>
    <radialGradient id="halo" cx="50%" cy="50%" r="50%">
      <stop offset="0%" stop-color="#ffdb92" stop-opacity="0.9"/>
      <stop offset="38%" stop-color="#eda849" stop-opacity="0.42"/>
      <stop offset="100%" stop-color="#8a4a10" stop-opacity="0"/>
    </radialGradient>
    <linearGradient id="goldbar" x1="0" y1="0" x2="0" y2="1">
      <stop offset="0%" stop-color="#fff0cb"/>
      <stop offset="45%" stop-color="#ffd782"/>
      <stop offset="100%" stop-color="#e5a53f"/>
    </linearGradient>
    <linearGradient id="floor" x1="0" y1="0" x2="0" y2="1">
      <stop offset="0%" stop-color="#1b0d03" stop-opacity="0"/>
      <stop offset="100%" stop-color="#0a0501" stop-opacity="0.92"/>
    </linearGradient></defs>

  <rect width="480" height="270" fill="url(#sky)"/>
  <circle cx="273.8" cy="85.4" r="18.9" fill="#ffd9a0" opacity="0.16"/><circle cx="312.9" cy="120.3" r="20.5" fill="#ffd9a0" opacity="0.13"/><circle cx="312.8" cy="83.3" r="13.6" fill="#ffd9a0" opacity="0.39"/><circle cx="253.6" cy="60.1" r="21.0" fill="#ffd9a0" opacity="0.28"/><circle cx="144.6" cy="41.8" r="13.4" fill="#ffd9a0" opacity="0.09"/><circle cx="291.6" cy="99.3" r="12.2" fill="#ffd9a0" opacity="0.35"/><circle cx="445.4" cy="75.0" r="16.6" fill="#ffd9a0" opacity="0.11"/><circle cx="26.9" cy="132.3" r="9.8" fill="#ffd9a0" opacity="0.14"/><circle cx="430.4" cy="101.2" r="7.1" fill="#ffd9a0" opacity="0.18"/><circle cx="116.5" cy="36.8" r="5.1" fill="#ffd9a0" opacity="0.24"/><circle cx="146.1" cy="53.2" r="8.2" fill="#ffd9a0" opacity="0.11"/><circle cx="15.8" cy="117.8" r="17.7" fill="#ffd9a0" opacity="0.25"/><circle cx="59.4" cy="20.1" r="7.0" fill="#ffd9a0" opacity="0.17"/><circle cx="27.6" cy="37.2" r="8.4" fill="#ffd9a0" opacity="0.13"/><circle cx="313.8" cy="61.8" r="13.0" fill="#ffd9a0" opacity="0.19"/><circle cx="258.7" cy="106.0" r="10.2" fill="#ffd9a0" opacity="0.09"/><circle cx="231.0" cy="51.2" r="18.3" fill="#ffd9a0" opacity="0.11"/><circle cx="418.9" cy="2.0" r="14.2" fill="#ffd9a0" opacity="0.22"/><circle cx="151.4" cy="120.0" r="16.9" fill="#ffd9a0" opacity="0.12"/><circle cx="237.6" cy="82.7" r="5.6" fill="#ffd9a0" opacity="0.10"/><circle cx="288.8" cy="98.5" r="12.9" fill="#ffd9a0" opacity="0.21"/><circle cx="243.3" cy="35.2" r="19.9" fill="#ffd9a0" opacity="0.39"/><circle cx="231.3" cy="2.8" r="11.8" fill="#ffd9a0" opacity="0.34"/><circle cx="156.0" cy="14.3" r="8.1" fill="#ffd9a0" opacity="0.30"/>
  
  <g opacity="1.0">
    <circle cx="259" cy="100" r="105" fill="url(#halo)"/>
    <g fill="url(#goldbar)">
      <rect x="253.7" y="32.4" width="11.1" height="135.0" rx="1.8"/>
      <rect x="230.9" y="77.0" width="56.7" height="11.1" rx="1.8"/>
    </g>
    <g fill="#fffbef" opacity="0.62">
      <rect x="257.3" y="37.8" width="3.8" height="124.2"/>
      <rect x="234.3" y="80.2" width="49.9" height="3.8"/>
    </g>
  </g>
  <rect y="113" width="480" height="157" fill="url(#floor)"/>
  <g opacity="0.40"><path fill="#06101f" d="M -44.9 170.0 C -44.9 144.6 -29.9 142.1 -19.9 142.1 C -9.9 142.1 5.1 144.6 5.1 170.0 Z"/><ellipse fill="#06101f" cx="-19.9" cy="135.2" rx="8.1" ry="9.1"/><path fill="#06101f" opacity="0.55" d="M -28.2 131.8 a 8.3 7.7 0 0 1 16.6 0 Z"/></g><g opacity="0.40"><path fill="#06101f" d="M 3.3 171.4 C 3.3 145.0 19.1 142.3 29.6 142.3 C 40.1 142.3 55.9 145.0 55.9 171.4 Z"/><ellipse fill="#06101f" cx="29.6" cy="135.1" rx="8.5" ry="9.6"/><path fill="#06101f" opacity="0.55" d="M 20.9 131.5 a 8.7 8.1 0 0 1 17.4 0 Z"/></g><g opacity="0.40"><path fill="#06101f" d="M 51.9 170.7 C 51.9 144.7 67.4 142.1 77.7 142.1 C 88.0 142.1 103.5 144.7 103.5 170.7 Z"/><ellipse fill="#06101f" cx="77.7" cy="135.0" rx="8.4" ry="9.4"/><path fill="#06101f" opacity="0.55" d="M 69.2 131.5 a 8.6 8.0 0 0 1 17.1 0 Z"/></g><g fill="#06101f" opacity="0.46"><path d="M 103.6 140.2 Q 99.1 88.6 90.2 65.5 L 100.3 65.5 Q 113.2 88.6 117.7 140.2 Z"/><ellipse cx="95.3" cy="62.3" rx="5.8" ry="7.0" transform="rotate(-14 95.3 65.5)"/></g><g opacity="0.40"><path fill="#06101f" d="M 89.1 165.7 C 89.1 139.8 104.5 137.3 114.8 137.3 C 125.0 137.3 140.4 139.8 140.4 165.7 Z"/><ellipse fill="#06101f" cx="114.8" cy="130.2" rx="8.3" ry="9.3"/><path fill="#06101f" opacity="0.55" d="M 106.3 126.7 a 8.5 7.9 0 0 1 17.0 0 Z"/></g><g opacity="0.40"><path fill="#06101f" d="M 121.1 170.2 C 121.1 143.2 137.3 140.5 148.1 140.5 C 158.9 140.5 175.2 143.2 175.2 170.2 Z"/><ellipse fill="#06101f" cx="148.1" cy="133.1" rx="8.8" ry="9.8"/><path fill="#06101f" opacity="0.55" d="M 139.2 129.4 a 9.0 8.4 0 0 1 17.9 0 Z"/></g><g fill="#06101f" opacity="0.46"><path d="M 199.2 138.8 Q 204.0 93.9 217.7 69.3 L 228.5 69.3 Q 219.0 93.9 214.2 138.8 Z"/><ellipse cx="223.1" cy="65.9" rx="6.1" ry="7.5" transform="rotate(14 223.1 69.3)"/></g><g opacity="0.40"><path fill="#06101f" d="M 171.0 164.6 C 171.0 137.4 187.4 134.7 198.3 134.7 C 209.2 134.7 225.6 137.4 225.6 164.6 Z"/><ellipse fill="#06101f" cx="198.3" cy="127.2" rx="8.9" ry="9.9"/><path fill="#06101f" opacity="0.55" d="M 189.3 123.5 a 9.1 8.4 0 0 1 18.1 0 Z"/></g><g opacity="0.40"><path fill="#06101f" d="M 221.5 165.9 C 221.5 141.3 235.9 138.9 245.4 138.9 C 255.0 138.9 269.4 141.3 269.4 165.9 Z"/><ellipse fill="#06101f" cx="245.4" cy="132.3" rx="7.8" ry="8.7"/><path fill="#06101f" opacity="0.55" d="M 237.5 129.1 a 7.9 7.4 0 0 1 15.9 0 Z"/></g><g fill="#06101f" opacity="0.46"><path d="M 280.2 140.5 Q 284.6 84.4 297.4 61.5 L 307.4 61.5 Q 298.6 84.4 294.1 140.5 Z"/><ellipse cx="302.4" cy="58.4" rx="5.7" ry="7.0" transform="rotate(14 302.4 61.5)"/></g><g opacity="0.40"><path fill="#06101f" d="M 254.9 171.6 C 254.9 145.9 270.1 143.4 280.2 143.4 C 290.3 143.4 305.5 145.9 305.5 171.6 Z"/><ellipse fill="#06101f" cx="280.2" cy="136.4" rx="8.2" ry="9.2"/><path fill="#06101f" opacity="0.55" d="M 271.8 133.0 a 8.4 7.8 0 0 1 16.8 0 Z"/></g><g fill="#06101f" opacity="0.46"><path d="M 319.2 139.6 Q 323.8 91.0 337.1 67.3 L 347.5 67.3 Q 338.3 91.0 333.7 139.6 Z"/><ellipse cx="342.3" cy="64.0" rx="5.9" ry="7.2" transform="rotate(14 342.3 67.3)"/></g><g opacity="0.40"><path fill="#06101f" d="M 293.5 165.1 C 293.5 138.7 309.3 136.0 319.8 136.0 C 330.3 136.0 346.1 138.7 346.1 165.1 Z"/><ellipse fill="#06101f" cx="319.8" cy="128.8" rx="8.6" ry="9.6"/><path fill="#06101f" opacity="0.55" d="M 311.1 125.2 a 8.7 8.1 0 0 1 17.5 0 Z"/></g><g opacity="0.40"><path fill="#06101f" d="M 341.2 165.9 C 341.2 141.9 355.2 139.6 364.5 139.6 C 373.8 139.6 387.7 141.9 387.7 165.9 Z"/><ellipse fill="#06101f" cx="364.5" cy="133.2" rx="7.6" ry="8.5"/><path fill="#06101f" opacity="0.55" d="M 356.8 130.0 a 7.7 7.2 0 0 1 15.4 0 Z"/></g><g fill="#06101f" opacity="0.46"><path d="M 385.7 143.0 Q 381.8 104.5 374.0 84.4 L 382.8 84.4 Q 394.1 104.5 398.0 143.0 Z"/><ellipse cx="378.4" cy="81.6" rx="5.0" ry="6.2" transform="rotate(-14 378.4 84.4)"/></g><g opacity="0.40"><path fill="#06101f" d="M 370.8 167.9 C 370.8 144.5 384.2 142.3 393.2 142.3 C 402.1 142.3 415.6 144.5 415.6 167.9 Z"/><ellipse fill="#06101f" cx="393.2" cy="136.1" rx="7.3" ry="8.1"/><path fill="#06101f" opacity="0.55" d="M 385.8 133.1 a 7.4 6.9 0 0 1 14.8 0 Z"/></g><g fill="#06101f" opacity="0.46"><path d="M 427.7 142.3 Q 423.6 99.4 415.6 78.6 L 424.7 78.6 Q 436.3 99.4 440.4 142.3 Z"/><ellipse cx="420.1" cy="75.7" rx="5.2" ry="6.4" transform="rotate(-14 420.1 78.6)"/></g><g opacity="0.40"><path fill="#06101f" d="M 418.6 167.0 C 418.6 143.1 432.5 140.8 441.7 140.8 C 451.0 140.8 464.9 143.1 464.9 167.0 Z"/><ellipse fill="#06101f" cx="441.7" cy="134.4" rx="7.5" ry="8.4"/><path fill="#06101f" opacity="0.55" d="M 434.1 131.3 a 7.7 7.1 0 0 1 15.3 0 Z"/></g><g fill="#06101f" opacity="0.46"><path d="M 472.5 142.4 Q 476.6 96.0 488.1 75.3 L 497.3 75.3 Q 489.2 96.0 485.2 142.4 Z"/><ellipse cx="492.7" cy="72.4" rx="5.2" ry="6.3" transform="rotate(14 492.7 75.3)"/></g><g opacity="0.40"><path fill="#06101f" d="M 456.7 171.2 C 456.7 147.3 470.5 145.0 479.7 145.0 C 488.9 145.0 502.7 147.3 502.7 171.2 Z"/><ellipse fill="#06101f" cx="479.7" cy="138.7" rx="7.5" ry="8.4"/><path fill="#06101f" opacity="0.55" d="M 472.1 135.5 a 7.6 7.1 0 0 1 15.3 0 Z"/></g><g opacity="0.40"><path fill="#06101f" d="M 482.8 164.3 C 482.8 138.3 498.3 135.7 508.6 135.7 C 519.0 135.7 534.5 138.3 534.5 164.3 Z"/><ellipse fill="#06101f" cx="508.6" cy="128.6" rx="8.4" ry="9.4"/><path fill="#06101f" opacity="0.55" d="M 500.1 125.0 a 8.6 8.0 0 0 1 17.2 0 Z"/></g><g opacity="0.70"><path fill="#06101f" d="M -71.3 228.7 C -71.3 192.2 -47.7 188.3 -31.9 188.3 C -16.2 188.3 7.4 192.2 7.4 228.7 Z"/><ellipse fill="#06101f" cx="-31.9" cy="177.5" rx="12.8" ry="14.3"/><path fill="#06101f" opacity="0.55" d="M -45.0 172.1 a 13.1 12.2 0 0 1 26.1 0 Z"/></g><g opacity="0.70"><path fill="#06101f" d="M 1.8 226.2 C 1.8 192.9 22.9 189.3 37.0 189.3 C 51.1 189.3 72.2 192.9 72.2 226.2 Z"/><ellipse fill="#06101f" cx="37.0" cy="179.7" rx="11.5" ry="12.8"/><path fill="#06101f" opacity="0.55" d="M 25.3 174.8 a 11.7 10.9 0 0 1 23.4 0 Z"/></g><g opacity="0.70"><path fill="#06101f" d="M 44.4 234.3 C 44.4 197.1 68.6 193.1 84.7 193.1 C 100.8 193.1 124.9 197.1 124.9 234.3 Z"/><ellipse fill="#06101f" cx="84.7" cy="182.0" rx="13.1" ry="14.7"/><path fill="#06101f" opacity="0.55" d="M 71.3 176.5 a 13.3 12.4 0 0 1 26.7 0 Z"/></g><g opacity="0.70"><path fill="#06101f" d="M 111.7 234.3 C 111.7 198.1 135.1 194.2 150.7 194.2 C 166.3 194.2 189.6 198.1 189.6 234.3 Z"/><ellipse fill="#06101f" cx="150.7" cy="183.5" rx="12.7" ry="14.2"/><path fill="#06101f" opacity="0.55" d="M 137.7 178.1 a 12.9 12.0 0 0 1 25.8 0 Z"/></g><g fill="#06101f" opacity="0.76"><path d="M 194.3 194.9 Q 200.3 120.5 217.6 89.6 L 231.1 89.6 Q 219.2 120.5 213.2 194.9 Z"/><ellipse cx="224.3" cy="85.3" rx="7.7" ry="9.4" transform="rotate(14 224.3 89.6)"/></g><g opacity="0.70"><path fill="#06101f" d="M 171.0 229.5 C 171.0 196.9 191.6 193.5 205.3 193.5 C 219.0 193.5 239.6 196.9 239.6 229.5 Z"/><ellipse fill="#06101f" cx="205.3" cy="184.1" rx="11.2" ry="12.5"/><path fill="#06101f" opacity="0.55" d="M 193.9 179.4 a 11.4 10.6 0 0 1 22.8 0 Z"/></g><g fill="#06101f" opacity="0.76"><path d="M 256.4 196.4 Q 250.7 141.1 239.4 111.8 L 252.3 111.8 Q 268.6 141.1 274.3 196.4 Z"/><ellipse cx="245.8" cy="107.7" rx="7.3" ry="9.0" transform="rotate(-14 245.8 111.8)"/></g><g opacity="0.70"><path fill="#06101f" d="M 239.2 227.0 C 239.2 195.8 258.8 192.5 271.8 192.5 C 284.8 192.5 304.4 195.8 304.4 227.0 Z"/><ellipse fill="#06101f" cx="271.8" cy="183.5" rx="10.6" ry="11.9"/><path fill="#06101f" opacity="0.55" d="M 261.0 179.1 a 10.8 10.1 0 0 1 21.6 0 Z"/></g><g fill="#06101f" opacity="0.76"><path d="M 311.4 189.9 Q 304.3 98.7 290.3 62.5 L 306.3 62.5 Q 326.5 98.7 333.5 189.9 Z"/><ellipse cx="298.3" cy="57.5" rx="9.0" ry="11.1" transform="rotate(-14 298.3 62.5)"/></g><g opacity="0.70"><path fill="#06101f" d="M 289.6 229.1 C 289.6 191.9 313.8 187.9 329.8 187.9 C 345.9 187.9 370.1 191.9 370.1 229.1 Z"/><ellipse fill="#06101f" cx="329.8" cy="176.8" rx="13.1" ry="14.6"/><path fill="#06101f" opacity="0.55" d="M 316.5 171.3 a 13.3 12.4 0 0 1 26.7 0 Z"/></g><g opacity="0.70"><path fill="#06101f" d="M 334.9 228.9 C 334.9 191.7 359.0 187.6 375.1 187.6 C 391.2 187.6 415.4 191.7 415.4 228.9 Z"/><ellipse fill="#06101f" cx="375.1" cy="176.6" rx="13.1" ry="14.7"/><path fill="#06101f" opacity="0.55" d="M 361.8 171.1 a 13.3 12.4 0 0 1 26.7 0 Z"/></g><g fill="#06101f" opacity="0.76"><path d="M 404.5 192.7 Q 411.0 120.2 429.5 86.9 L 444.2 86.9 Q 431.3 120.2 424.8 192.7 Z"/><ellipse cx="436.9" cy="82.3" rx="8.3" ry="10.2" transform="rotate(14 436.9 86.9)"/></g><g opacity="0.70"><path fill="#06101f" d="M 388.1 230.2 C 388.1 195.5 410.3 191.8 425.1 191.8 C 439.9 191.8 462.1 195.5 462.1 230.2 Z"/><ellipse fill="#06101f" cx="425.1" cy="181.7" rx="12.0" ry="13.5"/><path fill="#06101f" opacity="0.55" d="M 412.9 176.6 a 12.3 11.4 0 0 1 24.5 0 Z"/></g><g fill="#06101f" opacity="0.76"><path d="M 472.3 192.9 Q 465.9 122.8 453.1 89.8 L 467.7 89.8 Q 486.1 122.8 492.5 192.9 Z"/><ellipse cx="460.4" cy="85.2" rx="8.3" ry="10.1" transform="rotate(-14 460.4 89.8)"/></g><g opacity="0.70"><path fill="#06101f" d="M 446.8 224.7 C 446.8 190.3 468.8 186.6 483.5 186.6 C 498.2 186.6 520.2 190.3 520.2 224.7 Z"/><ellipse fill="#06101f" cx="483.5" cy="176.5" rx="11.9" ry="13.4"/><path fill="#06101f" opacity="0.55" d="M 471.3 171.5 a 12.2 11.3 0 0 1 24.4 0 Z"/></g><g fill="#06101f" opacity="0.76"><path d="M 530.9 193.3 Q 537.2 114.7 555.4 82.1 L 569.7 82.1 Q 557.1 114.7 550.8 193.3 Z"/><ellipse cx="562.5" cy="77.6" rx="8.1" ry="10.0" transform="rotate(14 562.5 82.1)"/></g><g opacity="0.70"><path fill="#06101f" d="M 509.4 226.8 C 509.4 192.7 531.1 189.1 545.6 189.1 C 560.1 189.1 581.8 192.7 581.8 226.8 Z"/><ellipse fill="#06101f" cx="545.6" cy="179.1" rx="11.8" ry="13.2"/><path fill="#06101f" opacity="0.55" d="M 533.6 174.2 a 12.0 11.2 0 0 1 24.0 0 Z"/></g><g opacity="1.00"><path fill="#06101f" d="M -93.4 298.0 C -93.4 251.3 -61.9 246.1 -40.9 246.1 C -19.9 246.1 11.6 251.3 11.6 298.0 Z"/><ellipse fill="#06101f" cx="-40.9" cy="231.7" rx="17.1" ry="19.1"/><path fill="#06101f" opacity="0.55" d="M -58.3 224.5 a 17.4 16.2 0 0 1 34.8 0 Z"/></g><g fill="#06101f" opacity="1.00"><path d="M 30.4 246.6 Q 38.5 150.9 61.9 109.0 L 80.4 109.0 Q 64.2 150.9 56.0 246.6 Z"/><ellipse cx="71.2" cy="103.1" rx="10.5" ry="12.8" transform="rotate(14 71.2 109.0)"/></g><g opacity="1.00"><path fill="#06101f" d="M 2.6 299.0 C 2.6 256.9 30.5 252.2 49.2 252.2 C 67.8 252.2 95.8 256.9 95.8 299.0 Z"/><ellipse fill="#06101f" cx="49.2" cy="239.4" rx="15.2" ry="17.0"/><path fill="#06101f" opacity="0.55" d="M 33.7 233.0 a 15.5 14.4 0 0 1 30.9 0 Z"/></g><g opacity="1.00"><path fill="#06101f" d="M 96.5 288.3 C 96.5 240.2 129.1 234.8 150.9 234.8 C 172.6 234.8 205.2 240.2 205.2 288.3 Z"/><ellipse fill="#06101f" cx="150.9" cy="219.8" rx="17.7" ry="19.8"/><path fill="#06101f" opacity="0.55" d="M 132.9 212.4 a 18.0 16.8 0 0 1 36.0 0 Z"/></g><g fill="#06101f" opacity="1.00"><path d="M 180.7 242.2 Q 189.7 156.0 215.7 109.5 L 236.2 109.5 Q 218.2 156.0 209.1 242.2 Z"/><ellipse cx="225.9" cy="103.0" rx="11.6" ry="14.2" transform="rotate(14 225.9 109.5)"/></g><g opacity="1.00"><path fill="#06101f" d="M 153.8 290.9 C 153.8 244.8 184.9 239.7 205.6 239.7 C 226.2 239.7 257.3 244.8 257.3 290.9 Z"/><ellipse fill="#06101f" cx="205.6" cy="225.5" rx="16.8" ry="18.8"/><path fill="#06101f" opacity="0.55" d="M 188.4 218.4 a 17.1 16.0 0 0 1 34.3 0 Z"/></g><g fill="#06101f" opacity="1.00"><path d="M 267.7 240.7 Q 277.1 141.0 304.0 92.8 L 325.2 92.8 Q 306.5 141.0 297.2 240.7 Z"/><ellipse cx="314.6" cy="86.2" rx="12.0" ry="14.7" transform="rotate(14 314.6 92.8)"/></g><g opacity="1.00"><path fill="#06101f" d="M 234.3 299.6 C 234.3 252.1 266.4 246.8 287.8 246.8 C 309.2 246.8 341.4 252.1 341.4 299.6 Z"/><ellipse fill="#06101f" cx="287.8" cy="232.1" rx="17.4" ry="19.5"/><path fill="#06101f" opacity="0.55" d="M 270.1 224.8 a 17.7 16.5 0 0 1 35.5 0 Z"/></g><g opacity="1.00"><path fill="#06101f" d="M 323.5 286.2 C 323.5 242.3 352.9 237.4 372.4 237.4 C 392.0 237.4 421.3 242.3 421.3 286.2 Z"/><ellipse fill="#06101f" cx="372.4" cy="224.0" rx="15.9" ry="17.8"/><path fill="#06101f" opacity="0.55" d="M 356.2 217.3 a 16.2 15.1 0 0 1 32.4 0 Z"/></g><g opacity="1.00"><path fill="#06101f" d="M 401.3 295.3 C 401.3 253.6 429.0 249.0 447.4 249.0 C 465.8 249.0 493.4 253.6 493.4 295.3 Z"/><ellipse fill="#06101f" cx="447.4" cy="236.3" rx="15.0" ry="16.8"/><path fill="#06101f" opacity="0.55" d="M 432.1 230.0 a 15.3 14.2 0 0 1 30.5 0 Z"/></g><g opacity="1.00"><path fill="#06101f" d="M 480.1 291.8 C 480.1 251.6 506.5 247.2 524.1 247.2 C 541.7 247.2 568.2 251.6 568.2 291.8 Z"/><ellipse fill="#06101f" cx="524.1" cy="235.1" rx="14.3" ry="16.0"/><path fill="#06101f" opacity="0.55" d="M 509.5 229.1 a 14.6 13.6 0 0 1 29.2 0 Z"/></g>
</svg>
